<svg width="1254" height="1254" viewBox="0 0 1254 1254" fill="none" xmlns="http://www.w3.org/2000/svg">
<path stroke="white" stroke-width="1px" d="M357.948 555.5C363.597 525.734 379.127 452.602 390.488 395.689C392.393 386.148 397.302 377.477 404.526 370.96L457.95 322.766C466.139 315.378 476.757 311.255 487.787 311.18L644.398 310.119C655.686 310.042 666.59 314.211 674.948 321.798L719.044 361.824C729.817 371.603 735.197 385.987 733.486 400.436L729.719 432.25L667.723 431.907L669.364 419.548C670.336 412.227 668.021 404.851 663.041 399.398L647.737 382.641C643 377.455 636.301 374.5 629.277 374.5H499.584C493.727 374.5 488.056 376.556 483.561 380.31L457.237 402.289C452.813 405.982 449.802 411.091 448.712 416.75L416.338 584.825C414.743 593.108 416.347 601.236 421.756 607.708C428.288 615.524 437.425 625.893 443.373 632.146C447.018 635.979 451.876 637.634 457.164 637.694L599.788 639.323L543.397 696.34H418.755C411.829 696.34 405.207 693.458 400.471 688.403C369.735 655.595 348.457 633.365 346.763 627.994C345.606 624.322 345.386 620.42 346.123 616.641L349.718 598.2C352.313 584.89 356.017 565.675 357.948 555.5Z" fill="black"/>
<path stroke="white" stroke-width="1px" d="M508.248 478.5C510.311 475.668 522.384 464.083 530.71 456.708C535.591 452.384 541.774 450.5 548.294 450.5H794.005C799.315 450.5 804.347 452.873 807.725 456.971C808.833 458.316 809.738 459.818 810.41 461.426L908.601 696.5H846.897L785.034 543.541L752.397 601.728L791.875 602L807.815 647.893L691.506 646.75L693.736 629.378C694.488 623.517 696.387 617.861 699.325 612.734L764.208 499.5H657.446H550.684L543.18 536.5L603.539 536.535C629.573 536.55 646.281 536.958 655.807 537.304C662.543 537.548 668.951 539.779 673.34 544.896C677.346 549.566 681.856 555.58 685.109 560.401C688.227 565.023 689.104 570.456 688.144 575.948C685.245 592.531 678.013 629.204 673.937 648.054C672.339 655.443 668.414 661.962 662.903 667.138L631.722 696.427L565.798 696.34C565.355 695.623 576.011 684.344 593.708 666.798L612.666 648.001C618.97 641.751 623.285 633.776 625.067 625.079L627.366 613.859C630.133 600.352 632.397 589.121 632.397 588.901C632.397 588.68 607.085 588.497 576.147 588.494C513.679 588.488 514.175 588.534 509.207 582.258C507.386 579.958 502.635 574.267 498.647 569.612C490.028 559.549 489.825 558.279 493.947 540.19C495.349 534.036 496.901 526.975 497.395 524.5C503.147 495.684 506.7 480.624 508.248 478.5Z" fill="url(#paint0_linear_19_344)"/>
<path stroke="white" stroke-width="1px" d="M604.207 844V765.7H667.657C670.627 765.7 673.327 766.465 675.757 767.995C678.277 769.435 680.257 771.415 681.697 773.935C683.227 776.365 683.992 779.065 683.992 782.035V844H672.922V782.035C672.922 780.595 672.382 779.38 671.302 778.39C670.312 777.31 669.097 776.77 667.657 776.77H620.677C619.237 776.77 617.977 777.31 616.897 778.39C615.817 779.38 615.277 780.595 615.277 782.035V844H604.207Z" fill="black"/>
<path stroke="white" stroke-width="1px" d="M526.665 844C523.695 844 520.95 843.28 518.43 841.84C516 840.31 514.02 838.33 512.49 835.9C511.05 833.38 510.33 830.635 510.33 827.665V782.035C510.33 779.065 511.05 776.365 512.49 773.935C514.02 771.415 516 769.435 518.43 767.995C520.95 766.465 523.695 765.7 526.665 765.7H573.645C576.705 765.7 579.45 766.465 581.88 767.995C584.4 769.435 586.38 771.415 587.82 773.935C589.35 776.365 590.115 779.065 590.115 782.035V810.385H521.4V827.665C521.4 829.105 521.895 830.365 522.885 831.445C523.965 832.435 525.225 832.93 526.665 832.93H590.115V844H526.665ZM521.4 799.315H578.91V782.035C578.91 780.595 578.37 779.38 577.29 778.39C576.3 777.31 575.085 776.77 573.645 776.77H526.665C525.225 776.77 523.965 777.31 522.885 778.39C521.895 779.38 521.4 780.595 521.4 782.035V799.315Z" fill="black"/>
<path stroke="white" stroke-width="1px" d="M421.087 875.05V765.7H484.537C487.507 765.7 490.207 766.465 492.637 767.995C495.157 769.435 497.137 771.415 498.577 773.935C500.107 776.365 500.872 779.065 500.872 782.035V827.665C500.872 830.635 500.107 833.38 498.577 835.9C497.137 838.33 495.157 840.31 492.637 841.84C490.207 843.28 487.507 844 484.537 844H432.157V875.05H421.087ZM437.557 832.93H484.537C485.977 832.93 487.192 832.435 488.182 831.445C489.262 830.365 489.802 829.105 489.802 827.665V782.035C489.802 780.595 489.262 779.38 488.182 778.39C487.192 777.31 485.977 776.77 484.537 776.77H437.557C436.117 776.77 434.857 777.31 433.777 778.39C432.697 779.38 432.157 780.595 432.157 782.035V827.665C432.157 829.105 432.697 830.365 433.777 831.445C434.857 832.435 436.117 832.93 437.557 832.93Z" fill="black"/>
<path stroke="white" stroke-width="1px" d="M325.49 844C322.52 844 319.775 843.28 317.255 841.84C314.825 840.4 312.89 838.465 311.45 836.035C310.01 833.515 309.29 830.77 309.29 827.8V763C309.29 760.03 310.01 757.33 311.45 754.9C312.89 752.38 314.825 750.4 317.255 748.96C319.775 747.52 322.52 746.8 325.49 746.8H390.29C393.26 746.8 395.96 747.52 398.39 748.96C400.91 750.4 402.89 752.38 404.33 754.9C405.77 757.33 406.49 760.03 406.49 763V827.8C406.49 830.77 405.77 833.515 404.33 836.035C402.89 838.465 400.91 840.4 398.39 841.84C395.96 843.28 393.26 844 390.29 844H325.49ZM325.49 833.065H390.29C391.73 833.065 392.945 832.57 393.935 831.58C395.015 830.5 395.555 829.24 395.555 827.8V763C395.555 761.56 395.015 760.345 393.935 759.355C392.945 758.275 391.73 757.735 390.29 757.735H325.49C324.05 757.735 322.79 758.275 321.71 759.355C320.72 760.345 320.225 761.56 320.225 763V827.8C320.225 829.24 320.72 830.5 321.71 831.58C322.79 832.57 324.05 833.065 325.49 833.065Z" fill="black"/>
<path stroke="white" stroke-width="1px" d="M846.836 844V763C846.836 760.03 847.556 757.33 848.996 754.9C850.436 752.38 852.371 750.4 854.801 748.96C857.321 747.52 860.066 746.8 863.036 746.8H927.836C930.806 746.8 933.506 747.52 935.936 748.96C938.456 750.4 940.436 752.38 941.876 754.9C943.316 757.33 944.036 760.03 944.036 763V844H933.101V808.495H857.771V844H846.836ZM857.771 797.56H933.101V763C933.101 761.56 932.561 760.345 931.481 759.355C930.491 758.275 929.276 757.735 927.836 757.735H863.036C861.596 757.735 860.336 758.275 859.256 759.355C858.266 760.345 857.771 761.56 857.771 763V797.56Z" fill="url(#paint1_linear_19_344)"/>
<path stroke="white" stroke-width="1px" d="M751.085 844C748.115 844 745.37 843.28 742.85 841.84C740.42 840.4 738.485 838.465 737.045 836.035C735.605 833.515 734.885 830.77 734.885 827.8V824.02H745.82V827.8C745.82 829.24 746.315 830.5 747.305 831.58C748.385 832.57 749.645 833.065 751.085 833.065H815.885C817.325 833.065 818.54 832.57 819.53 831.58C820.61 830.5 821.15 829.24 821.15 827.8V806.065C821.15 804.625 820.61 803.41 819.53 802.42C818.54 801.43 817.325 800.935 815.885 800.935H751.085C748.115 800.935 745.37 800.215 742.85 798.775C740.42 797.245 738.485 795.265 737.045 792.835C735.605 790.405 734.885 787.705 734.885 784.735V763C734.885 760.03 735.605 757.33 737.045 754.9C738.485 752.38 740.42 750.4 742.85 748.96C745.37 747.52 748.115 746.8 751.085 746.8H815.885C818.855 746.8 821.555 747.52 823.985 748.96C826.505 750.4 828.485 752.38 829.925 754.9C831.365 757.33 832.085 760.03 832.085 763V766.78H821.15V763C821.15 761.56 820.61 760.345 819.53 759.355C818.54 758.275 817.325 757.735 815.885 757.735H751.085C749.645 757.735 748.385 758.275 747.305 759.355C746.315 760.345 745.82 761.56 745.82 763V784.735C745.82 786.175 746.315 787.39 747.305 788.38C748.385 789.37 749.645 789.865 751.085 789.865H815.885C818.855 789.865 821.555 790.63 823.985 792.16C826.505 793.6 828.485 795.535 829.925 797.965C831.365 800.395 832.085 803.095 832.085 806.065V827.8C832.085 830.77 831.365 833.515 829.925 836.035C828.485 838.465 826.505 840.4 823.985 841.84C821.555 843.28 818.855 844 815.885 844H751.085Z" fill="url(#paint2_linear_19_344)"/>
<path stroke="white" stroke-width="1px" d="M1066.23 903.6H1069.42L1069.51 908.595H1069.6C1072.24 904.965 1075.96 903.15 1080.76 903.15V905.985C1077.43 905.985 1074.73 906.9 1072.66 908.73C1070.62 910.56 1069.6 912.93 1069.6 915.84V927H1066.23V903.6Z" fill="#989998"/>
<path stroke="white" stroke-width="1px" d="M1036.45 916.56C1036.51 919.11 1037.29 921.12 1038.79 922.59C1040.29 924.06 1042.24 924.795 1044.64 924.795C1046.95 924.795 1049.24 924.195 1051.52 922.995L1052.42 925.56C1049.9 926.82 1047.2 927.45 1044.32 927.45C1040.96 927.45 1038.25 926.355 1036.18 924.165C1034.11 921.975 1033.07 919.02 1033.07 915.3C1033.07 911.52 1034.03 908.55 1035.95 906.39C1037.9 904.23 1040.54 903.15 1043.87 903.15C1047.11 903.15 1049.62 904.185 1051.39 906.255C1053.19 908.295 1054.09 911.235 1054.09 915.075C1054.09 915.465 1054.06 915.96 1054 916.56H1036.45ZM1036.45 913.95H1050.85C1050.82 911.34 1050.19 909.33 1048.96 907.92C1047.73 906.51 1046.03 905.805 1043.87 905.805C1041.62 905.805 1039.84 906.525 1038.52 907.965C1037.23 909.375 1036.54 911.37 1036.45 913.95Z" fill="#989998"/>
<path stroke="white" stroke-width="1px" d="M1013.27 903.15C1016.12 903.15 1018.76 903.75 1021.19 904.95L1020.47 907.605C1018.16 906.435 1015.76 905.85 1013.27 905.85C1011.53 905.85 1010.2 906.165 1009.27 906.795C1008.37 907.425 1007.92 908.31 1007.92 909.45C1007.92 910.53 1008.31 911.385 1009.09 912.015C1009.9 912.645 1011.35 913.14 1013.45 913.5C1016.51 914.01 1018.7 914.85 1020.02 916.02C1021.37 917.19 1022.05 918.795 1022.05 920.835C1022.05 922.875 1021.27 924.495 1019.71 925.695C1018.18 926.865 1016.03 927.45 1013.27 927.45C1010.06 927.45 1007.18 926.7 1004.63 925.2L1005.4 922.545C1007.86 924.015 1010.48 924.75 1013.27 924.75C1015.01 924.75 1016.35 924.42 1017.28 923.76C1018.21 923.07 1018.67 922.095 1018.67 920.835C1018.67 919.635 1018.25 918.705 1017.41 918.045C1016.6 917.385 1015.16 916.875 1013.09 916.515C1010.12 916.005 1007.96 915.195 1006.61 914.085C1005.29 912.945 1004.63 911.4 1004.63 909.45C1004.63 907.53 1005.38 906 1006.88 904.86C1008.41 903.72 1010.54 903.15 1013.27 903.15Z" fill="#989998"/>
<path stroke="white" stroke-width="1px" d="M965.57 903.6L970.745 924.03H970.834L975.829 903.6H980.464L985.459 924.03H985.549L990.724 903.6H994.279L987.62 927H983.12L978.125 906.885H978.034L973.039 927H968.539L961.88 903.6H965.57Z" fill="#989998"/>
<path stroke="white" stroke-width="1px" d="M946.285 908.37C944.935 906.69 943.075 905.85 940.705 905.85C938.335 905.85 936.46 906.69 935.08 908.37C933.73 910.02 933.055 912.33 933.055 915.3C933.055 918.27 933.73 920.595 935.08 922.275C936.46 923.925 938.335 924.75 940.705 924.75C943.075 924.75 944.935 923.925 946.285 922.275C947.665 920.595 948.355 918.27 948.355 915.3C948.355 912.33 947.665 910.02 946.285 908.37ZM948.715 924.165C946.705 926.355 944.035 927.45 940.705 927.45C937.375 927.45 934.705 926.355 932.695 924.165C930.685 921.975 929.68 919.02 929.68 915.3C929.68 911.58 930.685 908.625 932.695 906.435C934.705 904.245 937.375 903.15 940.705 903.15C944.035 903.15 946.705 904.245 948.715 906.435C950.725 908.625 951.73 911.58 951.73 915.3C951.73 919.02 950.725 921.975 948.715 924.165Z" fill="#989998"/>
<path stroke="white" stroke-width="1px" d="M904.993 903.6H908.188L908.278 908.595H908.368C911.008 904.965 914.728 903.15 919.528 903.15V905.985C916.198 905.985 913.498 906.9 911.428 908.73C909.388 910.56 908.368 912.93 908.368 915.84V927H904.993V903.6Z" fill="#989998"/>
<path stroke="white" stroke-width="1px" d="M883.388 927.45C879.938 927.45 877.388 925.98 875.738 923.04H875.648L875.603 927H872.453V893.25H875.738V907.425H875.828C877.478 904.575 879.998 903.15 883.388 903.15C886.328 903.15 888.638 904.2 890.318 906.3C891.998 908.37 892.838 911.37 892.838 915.3C892.838 919.17 891.983 922.17 890.273 924.3C888.563 926.4 886.268 927.45 883.388 927.45ZM889.598 915.3C889.598 912.24 888.983 909.9 887.753 908.28C886.553 906.66 884.858 905.85 882.668 905.85C880.628 905.85 878.963 906.66 877.673 908.28C876.383 909.9 875.738 912.135 875.738 914.985V915.615C875.738 918.525 876.383 920.775 877.673 922.365C878.963 923.955 880.628 924.75 882.668 924.75C884.798 924.75 886.478 923.94 887.708 922.32C888.968 920.67 889.598 918.33 889.598 915.3Z" fill="#989998"/>
<path stroke="white" stroke-width="1px" d="M825.285 903.6H828.48L828.57 908.595H828.66C831.3 904.965 835.02 903.15 839.82 903.15V905.985C836.49 905.985 833.79 906.9 831.72 908.73C829.68 910.56 828.66 912.93 828.66 915.84V927H825.285V903.6Z" fill="#989998"/>
<path stroke="white" stroke-width="1px" d="M796.457 903.6V918.135C796.457 920.535 796.847 922.215 797.627 923.175C798.437 924.135 799.772 924.615 801.632 924.615C803.372 924.615 804.947 923.775 806.357 922.095C807.797 920.415 808.517 918.42 808.517 916.11V903.6H811.802V927H808.652L808.607 922.815H808.517C807.617 924.255 806.462 925.395 805.052 926.235C803.672 927.045 802.172 927.45 800.552 927.45C798.032 927.45 796.172 926.745 794.972 925.335C793.802 923.895 793.217 921.6 793.217 918.45V903.6H796.457Z" fill="#989998"/>
<path stroke="white" stroke-width="1px" d="M776.058 908.37C774.708 906.69 772.848 905.85 770.478 905.85C768.108 905.85 766.233 906.69 764.853 908.37C763.503 910.02 762.828 912.33 762.828 915.3C762.828 918.27 763.503 920.595 764.853 922.275C766.233 923.925 768.108 924.75 770.478 924.75C772.848 924.75 774.708 923.925 776.058 922.275C777.438 920.595 778.128 918.27 778.128 915.3C778.128 912.33 777.438 910.02 776.058 908.37ZM778.488 924.165C776.478 926.355 773.808 927.45 770.478 927.45C767.148 927.45 764.478 926.355 762.468 924.165C760.458 921.975 759.453 919.02 759.453 915.3C759.453 911.58 760.458 908.625 762.468 906.435C764.478 904.245 767.148 903.15 770.478 903.15C773.808 903.15 776.478 904.245 778.488 906.435C780.498 908.625 781.503 911.58 781.503 915.3C781.503 919.02 780.498 921.975 778.488 924.165Z" fill="#989998"/>
<path stroke="white" stroke-width="1px" d="M732.217 903.6L739.192 922.86H739.282L746.977 903.6H750.487L736.537 936.9H733.027L737.437 926.865L728.572 903.6H732.217Z" fill="#989998"/>
<path stroke="white" stroke-width="1px" d="M678.244 903.6H681.394L681.439 907.785H681.529C682.429 906.345 683.569 905.22 684.949 904.41C686.359 903.57 687.874 903.15 689.494 903.15C692.134 903.15 694.084 903.975 695.344 905.625C696.634 907.245 697.279 909.825 697.279 913.365V927H694.039V913.635C694.039 910.725 693.619 908.715 692.779 907.605C691.939 906.465 690.499 905.895 688.459 905.895C686.719 905.895 685.129 906.765 683.689 908.505C682.249 910.215 681.529 912.21 681.529 914.49V927H678.244V903.6Z" fill="#989998"/>
<path stroke="white" stroke-width="1px" d="M659.495 898.2V893.25H662.96V898.2H659.495ZM659.495 927V903.6H662.96V927H659.495Z" fill="#989998"/>
<path stroke="white" stroke-width="1px" d="M616.515 903.15C619.365 903.15 622.005 903.75 624.435 904.95L623.715 907.605C621.405 906.435 619.005 905.85 616.515 905.85C614.775 905.85 613.44 906.165 612.51 906.795C611.61 907.425 611.16 908.31 611.16 909.45C611.16 910.53 611.55 911.385 612.33 912.015C613.14 912.645 614.595 913.14 616.695 913.5C619.755 914.01 621.945 914.85 623.265 916.02C624.615 917.19 625.29 918.795 625.29 920.835C625.29 922.875 624.51 924.495 622.95 925.695C621.42 926.865 619.275 927.45 616.515 927.45C613.305 927.45 610.425 926.7 607.875 925.2L608.64 922.545C611.1 924.015 613.725 924.75 616.515 924.75C618.255 924.75 619.59 924.42 620.52 923.76C621.45 923.07 621.915 922.095 621.915 920.835C621.915 919.635 621.495 918.705 620.655 918.045C619.845 917.385 618.405 916.875 616.335 916.515C613.365 916.005 611.205 915.195 609.855 914.085C608.535 912.945 607.875 911.4 607.875 909.45C607.875 907.53 608.625 906 610.125 904.86C611.655 903.72 613.785 903.15 616.515 903.15Z" fill="#989998"/>
<path stroke="white" stroke-width="1px" d="M586.362 903.15C589.632 903.15 591.972 903.825 593.382 905.175C594.792 906.525 595.497 908.745 595.497 911.835V920.7C595.497 922.83 595.722 924.93 596.172 927H593.022C592.782 925.83 592.632 924.45 592.572 922.86H592.482C591.672 924.3 590.502 925.425 588.972 926.235C587.442 927.045 585.717 927.45 583.797 927.45C581.637 927.45 579.912 926.85 578.622 925.65C577.332 924.42 576.687 922.77 576.687 920.7C576.687 918.09 577.827 916.02 580.107 914.49C582.387 912.93 585.627 912.15 589.827 912.15H592.212V911.925C592.212 909.645 591.777 908.07 590.907 907.2C590.067 906.3 588.552 905.85 586.362 905.85C583.542 905.85 580.917 906.54 578.487 907.92L577.902 905.265C580.482 903.855 583.302 903.15 586.362 903.15ZM579.927 920.565C579.927 921.915 580.347 922.98 581.187 923.76C582.027 924.51 583.152 924.885 584.562 924.885C586.632 924.885 588.417 924.15 589.917 922.68C591.447 921.18 592.212 919.35 592.212 917.19V914.67H589.827C586.677 914.67 584.232 915.21 582.492 916.29C580.782 917.34 579.927 918.765 579.927 920.565Z" fill="#989998"/>
<path stroke="white" stroke-width="1px" d="M548.032 916.56C548.092 919.11 548.872 921.12 550.372 922.59C551.872 924.06 553.822 924.795 556.222 924.795C558.532 924.795 560.827 924.195 563.107 922.995L564.007 925.56C561.487 926.82 558.787 927.45 555.907 927.45C552.547 927.45 549.832 926.355 547.762 924.165C545.692 921.975 544.657 919.02 544.657 915.3C544.657 911.52 545.617 908.55 547.537 906.39C549.487 904.23 552.127 903.15 555.457 903.15C558.697 903.15 561.202 904.185 562.972 906.255C564.772 908.295 565.672 911.235 565.672 915.075C565.672 915.465 565.642 915.96 565.582 916.56H548.032ZM548.032 913.95H562.432C562.402 911.34 561.772 909.33 560.542 907.92C559.312 906.51 557.617 905.805 555.457 905.805C553.207 905.805 551.422 906.525 550.102 907.965C548.812 909.375 548.122 911.37 548.032 913.95Z" fill="#989998"/>
<path stroke="white" stroke-width="1px" d="M519.971 903.6H523.166L523.256 908.595H523.346C525.986 904.965 529.706 903.15 534.506 903.15V905.985C531.176 905.985 528.476 906.9 526.406 908.73C524.366 910.56 523.346 912.93 523.346 915.84V927H519.971V903.6Z" fill="#989998"/>
<path stroke="white" stroke-width="1px" d="M490.94 908.325C489.71 909.945 489.095 912.27 489.095 915.3C489.095 918.33 489.725 920.67 490.985 922.32C492.245 923.94 493.94 924.75 496.07 924.75C498.11 924.75 499.76 923.955 501.02 922.365C502.31 920.775 502.955 918.525 502.955 915.615V914.985C502.955 912.135 502.31 909.9 501.02 908.28C499.76 906.66 498.11 905.85 496.07 905.85C493.88 905.85 492.17 906.675 490.94 908.325ZM485.855 915.3C485.855 911.37 486.695 908.37 488.375 906.3C490.055 904.2 492.365 903.15 495.305 903.15C498.695 903.15 501.215 904.575 502.865 907.425H502.955V893.25H506.24V927H503.09L503.045 923.04H502.955C501.305 925.98 498.755 927.45 495.305 927.45C492.425 927.45 490.13 926.4 488.42 924.3C486.71 922.17 485.855 919.17 485.855 915.3Z" fill="#989998"/>
<path stroke="white" stroke-width="1px" d="M454.879 903.6H458.029L458.074 907.785H458.164C459.064 906.345 460.204 905.22 461.584 904.41C462.994 903.57 464.509 903.15 466.129 903.15C468.769 903.15 470.719 903.975 471.979 905.625C473.269 907.245 473.914 909.825 473.914 913.365V927H470.674V913.635C470.674 910.725 470.254 908.715 469.414 907.605C468.574 906.465 467.134 905.895 465.094 905.895C463.354 905.895 461.764 906.765 460.324 908.505C458.884 910.215 458.164 912.21 458.164 914.49V927H454.879V903.6Z" fill="#989998"/>
<path stroke="white" stroke-width="1px" d="M415.128 927L427.143 894.15H431.193L443.163 927H439.338L436.008 917.415H422.148L418.863 927H415.128ZM423.138 914.535H435.018L429.123 897.39H429.033L423.138 914.535Z" fill="#989998"/>
<path stroke="white" stroke-width="1px" d="M364.8 903.6H367.95L367.995 907.785H368.085C368.985 906.345 370.125 905.22 371.505 904.41C372.915 903.57 374.43 903.15 376.05 903.15C378.69 903.15 380.64 903.975 381.9 905.625C383.19 907.245 383.835 909.825 383.835 913.365V927H380.595V913.635C380.595 910.725 380.175 908.715 379.335 907.605C378.495 906.465 377.055 905.895 375.015 905.895C373.275 905.895 371.685 906.765 370.245 908.505C368.805 910.215 368.085 912.21 368.085 914.49V927H364.8V903.6Z" fill="#989998"/>
<path stroke="white" stroke-width="1px" d="M341.946 903.15C345.216 903.15 347.556 903.825 348.966 905.175C350.376 906.525 351.081 908.745 351.081 911.835V920.7C351.081 922.83 351.306 924.93 351.756 927H348.606C348.366 925.83 348.216 924.45 348.156 922.86H348.066C347.256 924.3 346.086 925.425 344.556 926.235C343.026 927.045 341.301 927.45 339.381 927.45C337.221 927.45 335.496 926.85 334.206 925.65C332.916 924.42 332.271 922.77 332.271 920.7C332.271 918.09 333.411 916.02 335.691 914.49C337.971 912.93 341.211 912.15 345.411 912.15H347.796V911.925C347.796 909.645 347.361 908.07 346.491 907.2C345.651 906.3 344.136 905.85 341.946 905.85C339.126 905.85 336.501 906.54 334.071 907.92L333.486 905.265C336.066 903.855 338.886 903.15 341.946 903.15ZM335.511 920.565C335.511 921.915 335.931 922.98 336.771 923.76C337.611 924.51 338.736 924.885 340.146 924.885C342.216 924.885 344.001 924.15 345.501 922.68C347.031 921.18 347.796 919.35 347.796 917.19V914.67H345.411C342.261 914.67 339.816 915.21 338.076 916.29C336.366 917.34 335.511 918.765 335.511 920.565Z" fill="#989998"/>
<path stroke="white" stroke-width="1px" d="M310.83 896.625C308.76 896.625 307.155 897.09 306.015 898.02C304.875 898.92 304.305 900.18 304.305 901.8C304.305 904.71 306.435 906.81 310.695 908.1C314.415 909.18 317.055 910.53 318.615 912.15C320.205 913.77 321 915.87 321 918.45C321 921.36 320.085 923.595 318.255 925.155C316.455 926.685 313.875 927.45 310.515 927.45C306.795 927.45 303.495 926.505 300.615 924.615L301.695 921.645C304.305 923.505 307.245 924.435 310.515 924.435C312.735 924.435 314.43 923.925 315.6 922.905C316.8 921.885 317.4 920.4 317.4 918.45C317.4 916.65 316.89 915.225 315.87 914.175C314.88 913.095 313.125 912.165 310.605 911.385C304.035 909.435 300.75 906.24 300.75 901.8C300.75 899.34 301.635 897.375 303.405 895.905C305.205 894.435 307.68 893.7 310.83 893.7C314.22 893.7 317.37 894.405 320.28 895.815L319.38 898.605C316.77 897.285 313.92 896.625 310.83 896.625Z" fill="#989998"/>
<path stroke="white" stroke-width="1px" d="M241.737 927L253.752 894.15H257.802L269.772 927H265.947L262.617 917.415H248.757L245.472 927H241.737ZM249.747 914.535H261.627L255.732 897.39H255.642L249.747 914.535Z" fill="#989998"/>
<path stroke="white" stroke-width="1px" d="M211.678 894.15H235.663V897.21H225.493V927H221.893V897.21H211.678V894.15Z" fill="#989998"/>
<path stroke="white" stroke-width="1px" d="M189.535 896.625C185.305 896.625 181.975 897.885 179.545 900.405C177.145 902.925 175.945 906.315 175.945 910.575C175.945 914.865 177.19 918.27 179.68 920.79C182.2 923.28 185.59 924.525 189.85 924.525C192.52 924.525 194.965 924.03 197.185 923.04V910.755H185.8V907.875H200.65V924.975C197.26 926.625 193.555 927.45 189.535 927.45C184.315 927.45 180.13 925.92 176.98 922.86C173.86 919.8 172.3 915.705 172.3 910.575C172.3 905.445 173.83 901.35 176.89 898.29C179.95 895.23 184.075 893.7 189.265 893.7C193.075 893.7 196.465 894.6 199.435 896.4L198.22 899.055C195.52 897.435 192.625 896.625 189.535 896.625Z" fill="#989998"/>
<defs>
<linearGradient id="paint0_linear_19_344" x1="699.97" y1="450.5" x2="699.97" y2="696.5" gradientUnits="userSpaceOnUse">
<stop stop-color="#FD8709"/>
<stop offset="1" stop-color="#F55C07"/>
</linearGradient>
<linearGradient id="paint1_linear_19_344" x1="840" y1="708" x2="840" y2="877" gradientUnits="userSpaceOnUse">
<stop stop-color="#FD870A"/>
<stop offset="1" stop-color="#F55C07"/>
</linearGradient>
<linearGradient id="paint2_linear_19_344" x1="840" y1="708" x2="840" y2="877" gradientUnits="userSpaceOnUse">
<stop stop-color="#FD870A"/>
<stop offset="1" stop-color="#F55C07"/>
</linearGradient>
</defs>
</svg>
