<svg width="1254" height="1254" viewBox="0 0 1254 1254" fill="none" xmlns="http://www.w3.org/2000/svg">
<path stroke="black" stroke-width="1px" d="M357.948 589.5C363.597 559.734 379.127 486.602 390.488 429.689C392.393 420.148 397.302 411.477 404.526 404.96L457.95 356.766C466.139 349.378 476.757 345.255 487.787 345.18L644.398 344.119C655.686 344.042 666.59 348.211 674.948 355.798L719.044 395.824C729.817 405.603 735.197 419.987 733.486 434.436L729.719 466.25L667.723 465.907L669.364 453.548C670.336 446.227 668.021 438.851 663.041 433.398L647.737 416.641C643 411.455 636.301 408.5 629.277 408.5H499.584C493.727 408.5 488.056 410.556 483.561 414.31L457.237 436.289C452.813 439.982 449.802 445.091 448.712 450.75L416.338 618.825C414.743 627.108 416.347 635.236 421.756 641.708C428.288 649.524 437.425 659.893 443.373 666.146C447.018 669.979 451.876 671.634 457.164 671.694L599.788 673.323L543.397 730.34H418.755C411.829 730.34 405.207 727.458 400.471 722.403C369.735 689.595 348.457 667.365 346.763 661.994C345.606 658.322 345.386 654.42 346.123 650.641L349.718 632.2C352.313 618.89 356.017 599.675 357.948 589.5Z" fill="white"/>
<path stroke="black" stroke-width="1px" d="M508.248 512.5C510.311 509.668 522.384 498.083 530.71 490.708C535.591 486.384 541.774 484.5 548.294 484.5H794.005C799.315 484.5 804.347 486.873 807.725 490.971C808.833 492.316 809.738 493.818 810.41 495.426L908.601 730.5H846.897L785.034 577.541L752.397 635.728L791.875 636L807.815 681.893L691.506 680.75L693.736 663.378C694.488 657.517 696.387 651.861 699.325 646.734L764.208 533.5H657.446H550.684L543.18 570.5L603.539 570.535C629.573 570.55 646.281 570.958 655.807 571.304C662.543 571.548 668.951 573.779 673.34 578.896C677.346 583.566 681.856 589.58 685.109 594.401C688.227 599.023 689.104 604.456 688.144 609.948C685.245 626.531 678.013 663.204 673.937 682.054C672.339 689.443 668.414 695.962 662.903 701.138L631.722 730.427L565.798 730.34C565.355 729.623 576.011 718.344 593.708 700.798L612.666 682.001C618.97 675.751 623.285 667.776 625.067 659.079L627.366 647.859C630.133 634.352 632.397 623.121 632.397 622.901C632.397 622.68 607.085 622.497 576.147 622.494C513.679 622.488 514.175 622.534 509.207 616.258C507.386 613.958 502.635 608.267 498.647 603.612C490.028 593.549 489.825 592.279 493.947 574.19C495.349 568.036 496.901 560.975 497.395 558.5C503.147 529.684 506.7 514.624 508.248 512.5Z" fill="url(#paint0_linear_19_308)"/>
<path stroke="black" stroke-width="1px" d="M604.207 878V799.7H667.657C670.627 799.7 673.327 800.465 675.757 801.995C678.277 803.435 680.257 805.415 681.697 807.935C683.227 810.365 683.992 813.065 683.992 816.035V878H672.922V816.035C672.922 814.595 672.382 813.38 671.302 812.39C670.312 811.31 669.097 810.77 667.657 810.77H620.677C619.237 810.77 617.977 811.31 616.897 812.39C615.817 813.38 615.277 814.595 615.277 816.035V878H604.207Z" fill="white"/>
<path stroke="black" stroke-width="1px" d="M526.665 878C523.695 878 520.95 877.28 518.43 875.84C516 874.31 514.02 872.33 512.49 869.9C511.05 867.38 510.33 864.635 510.33 861.665V816.035C510.33 813.065 511.05 810.365 512.49 807.935C514.02 805.415 516 803.435 518.43 801.995C520.95 800.465 523.695 799.7 526.665 799.7H573.645C576.705 799.7 579.45 800.465 581.88 801.995C584.4 803.435 586.38 805.415 587.82 807.935C589.35 810.365 590.115 813.065 590.115 816.035V844.385H521.4V861.665C521.4 863.105 521.895 864.365 522.885 865.445C523.965 866.435 525.225 866.93 526.665 866.93H590.115V878H526.665ZM521.4 833.315H578.91V816.035C578.91 814.595 578.37 813.38 577.29 812.39C576.3 811.31 575.085 810.77 573.645 810.77H526.665C525.225 810.77 523.965 811.31 522.885 812.39C521.895 813.38 521.4 814.595 521.4 816.035V833.315Z" fill="white"/>
<path stroke="black" stroke-width="1px" d="M421.087 909.05V799.7H484.537C487.507 799.7 490.207 800.465 492.637 801.995C495.157 803.435 497.137 805.415 498.577 807.935C500.107 810.365 500.872 813.065 500.872 816.035V861.665C500.872 864.635 500.107 867.38 498.577 869.9C497.137 872.33 495.157 874.31 492.637 875.84C490.207 877.28 487.507 878 484.537 878H432.157V909.05H421.087ZM437.557 866.93H484.537C485.977 866.93 487.192 866.435 488.182 865.445C489.262 864.365 489.802 863.105 489.802 861.665V816.035C489.802 814.595 489.262 813.38 488.182 812.39C487.192 811.31 485.977 810.77 484.537 810.77H437.557C436.117 810.77 434.857 811.31 433.777 812.39C432.697 813.38 432.157 814.595 432.157 816.035V861.665C432.157 863.105 432.697 864.365 433.777 865.445C434.857 866.435 436.117 866.93 437.557 866.93Z" fill="white"/>
<path stroke="black" stroke-width="1px" d="M325.49 878C322.52 878 319.775 877.28 317.255 875.84C314.825 874.4 312.89 872.465 311.45 870.035C310.01 867.515 309.29 864.77 309.29 861.8V797C309.29 794.03 310.01 791.33 311.45 788.9C312.89 786.38 314.825 784.4 317.255 782.96C319.775 781.52 322.52 780.8 325.49 780.8H390.29C393.26 780.8 395.96 781.52 398.39 782.96C400.91 784.4 402.89 786.38 404.33 788.9C405.77 791.33 406.49 794.03 406.49 797V861.8C406.49 864.77 405.77 867.515 404.33 870.035C402.89 872.465 400.91 874.4 398.39 875.84C395.96 877.28 393.26 878 390.29 878H325.49ZM325.49 867.065H390.29C391.73 867.065 392.945 866.57 393.935 865.58C395.015 864.5 395.555 863.24 395.555 861.8V797C395.555 795.56 395.015 794.345 393.935 793.355C392.945 792.275 391.73 791.735 390.29 791.735H325.49C324.05 791.735 322.79 792.275 321.71 793.355C320.72 794.345 320.225 795.56 320.225 797V861.8C320.225 863.24 320.72 864.5 321.71 865.58C322.79 866.57 324.05 867.065 325.49 867.065Z" fill="white"/>
<path stroke="black" stroke-width="1px" d="M846.836 878V797C846.836 794.03 847.556 791.33 848.996 788.9C850.436 786.38 852.371 784.4 854.801 782.96C857.321 781.52 860.066 780.8 863.036 780.8H927.836C930.806 780.8 933.506 781.52 935.936 782.96C938.456 784.4 940.436 786.38 941.876 788.9C943.316 791.33 944.036 794.03 944.036 797V878H933.101V842.495H857.771V878H846.836ZM857.771 831.56H933.101V797C933.101 795.56 932.561 794.345 931.481 793.355C930.491 792.275 929.276 791.735 927.836 791.735H863.036C861.596 791.735 860.336 792.275 859.256 793.355C858.266 794.345 857.771 795.56 857.771 797V831.56Z" fill="url(#paint1_linear_19_308)"/>
<path stroke="black" stroke-width="1px" d="M751.085 878C748.115 878 745.37 877.28 742.85 875.84C740.42 874.4 738.485 872.465 737.045 870.035C735.605 867.515 734.885 864.77 734.885 861.8V858.02H745.82V861.8C745.82 863.24 746.315 864.5 747.305 865.58C748.385 866.57 749.645 867.065 751.085 867.065H815.885C817.325 867.065 818.54 866.57 819.53 865.58C820.61 864.5 821.15 863.24 821.15 861.8V840.065C821.15 838.625 820.61 837.41 819.53 836.42C818.54 835.43 817.325 834.935 815.885 834.935H751.085C748.115 834.935 745.37 834.215 742.85 832.775C740.42 831.245 738.485 829.265 737.045 826.835C735.605 824.405 734.885 821.705 734.885 818.735V797C734.885 794.03 735.605 791.33 737.045 788.9C738.485 786.38 740.42 784.4 742.85 782.96C745.37 781.52 748.115 780.8 751.085 780.8H815.885C818.855 780.8 821.555 781.52 823.985 782.96C826.505 784.4 828.485 786.38 829.925 788.9C831.365 791.33 832.085 794.03 832.085 797V800.78H821.15V797C821.15 795.56 820.61 794.345 819.53 793.355C818.54 792.275 817.325 791.735 815.885 791.735H751.085C749.645 791.735 748.385 792.275 747.305 793.355C746.315 794.345 745.82 795.56 745.82 797V818.735C745.82 820.175 746.315 821.39 747.305 822.38C748.385 823.37 749.645 823.865 751.085 823.865H815.885C818.855 823.865 821.555 824.63 823.985 826.16C826.505 827.6 828.485 829.535 829.925 831.965C831.365 834.395 832.085 837.095 832.085 840.065V861.8C832.085 864.77 831.365 867.515 829.925 870.035C828.485 872.465 826.505 874.4 823.985 875.84C821.555 877.28 818.855 878 815.885 878H751.085Z" fill="url(#paint2_linear_19_308)"/>
<defs>
<linearGradient id="paint0_linear_19_308" x1="699.97" y1="484.5" x2="699.97" y2="730.5" gradientUnits="userSpaceOnUse">
<stop stop-color="#FD8709"/>
<stop offset="1" stop-color="#F55C07"/>
</linearGradient>
<linearGradient id="paint1_linear_19_308" x1="840" y1="742" x2="840" y2="911" gradientUnits="userSpaceOnUse">
<stop stop-color="#FD870A"/>
<stop offset="1" stop-color="#F55C07"/>
</linearGradient>
<linearGradient id="paint2_linear_19_308" x1="840" y1="742" x2="840" y2="911" gradientUnits="userSpaceOnUse">
<stop stop-color="#FD870A"/>
<stop offset="1" stop-color="#F55C07"/>
</linearGradient>
</defs>
</svg>
