<svg width="1254" height="1254" viewBox="0 0 1254 1254" fill="none" xmlns="http://www.w3.org/2000/svg">
<path stroke="black" stroke-width="1px" d="M357.948 555.5C363.597 525.734 379.127 452.602 390.488 395.689C392.393 386.148 397.302 377.477 404.526 370.96L457.95 322.766C466.139 315.378 476.757 311.255 487.787 311.18L644.398 310.119C655.686 310.042 666.59 314.211 674.948 321.798L719.044 361.824C729.817 371.603 735.197 385.987 733.486 400.436L729.719 432.25L667.723 431.907L669.364 419.548C670.336 412.227 668.021 404.851 663.041 399.398L647.737 382.641C643 377.455 636.301 374.5 629.277 374.5H499.584C493.727 374.5 488.056 376.556 483.561 380.31L457.237 402.289C452.813 405.982 449.802 411.091 448.712 416.75L416.338 584.825C414.743 593.108 416.347 601.236 421.756 607.708C428.288 615.524 437.425 625.893 443.373 632.146C447.018 635.979 451.876 637.634 457.164 637.694L599.788 639.323L543.397 696.34H418.755C411.829 696.34 405.207 693.458 400.471 688.403C369.735 655.595 348.457 633.365 346.763 627.994C345.606 624.322 345.386 620.42 346.123 616.641L349.718 598.2C352.313 584.89 356.017 565.675 357.948 555.5Z" fill="white"/>
<path stroke="black" stroke-width="1px" d="M508.248 478.5C510.311 475.668 522.384 464.083 530.71 456.708C535.591 452.384 541.774 450.5 548.294 450.5H794.005C799.315 450.5 804.347 452.873 807.725 456.971C808.833 458.316 809.738 459.818 810.41 461.426L908.601 696.5H846.897L785.034 543.541L752.397 601.728L791.875 602L807.815 647.893L691.506 646.75L693.736 629.378C694.488 623.517 696.387 617.861 699.325 612.734L764.208 499.5H657.446H550.684L543.18 536.5L603.539 536.535C629.573 536.55 646.281 536.958 655.807 537.304C662.543 537.548 668.951 539.779 673.34 544.896C677.346 549.566 681.856 555.58 685.109 560.401C688.227 565.023 689.104 570.456 688.144 575.948C685.245 592.531 678.013 629.204 673.937 648.054C672.339 655.443 668.414 661.962 662.903 667.138L631.722 696.427L565.798 696.34C565.355 695.623 576.011 684.344 593.708 666.798L612.666 648.001C618.97 641.751 623.285 633.776 625.067 625.079L627.366 613.859C630.133 600.352 632.397 589.121 632.397 588.901C632.397 588.68 607.085 588.497 576.147 588.494C513.679 588.488 514.175 588.534 509.207 582.258C507.386 579.958 502.635 574.267 498.647 569.612C490.028 559.549 489.825 558.279 493.947 540.19C495.349 534.036 496.901 526.975 497.395 524.5C503.147 495.684 506.7 480.624 508.248 478.5Z" fill="url(#paint0_linear_19_308)"/>
<path stroke="black" stroke-width="1px" d="M604.207 844V765.7H667.657C670.627 765.7 673.327 766.465 675.757 767.995C678.277 769.435 680.257 771.415 681.697 773.935C683.227 776.365 683.992 779.065 683.992 782.035V844H672.922V782.035C672.922 780.595 672.382 779.38 671.302 778.39C670.312 777.31 669.097 776.77 667.657 776.77H620.677C619.237 776.77 617.977 777.31 616.897 778.39C615.817 779.38 615.277 780.595 615.277 782.035V844H604.207Z" fill="white"/>
<path stroke="black" stroke-width="1px" d="M526.665 844C523.695 844 520.95 843.28 518.43 841.84C516 840.31 514.02 838.33 512.49 835.9C511.05 833.38 510.33 830.635 510.33 827.665V782.035C510.33 779.065 511.05 776.365 512.49 773.935C514.02 771.415 516 769.435 518.43 767.995C520.95 766.465 523.695 765.7 526.665 765.7H573.645C576.705 765.7 579.45 766.465 581.88 767.995C584.4 769.435 586.38 771.415 587.82 773.935C589.35 776.365 590.115 779.065 590.115 782.035V810.385H521.4V827.665C521.4 829.105 521.895 830.365 522.885 831.445C523.965 832.435 525.225 832.93 526.665 832.93H590.115V844H526.665ZM521.4 799.315H578.91V782.035C578.91 780.595 578.37 779.38 577.29 778.39C576.3 777.31 575.085 776.77 573.645 776.77H526.665C525.225 776.77 523.965 777.31 522.885 778.39C521.895 779.38 521.4 780.595 521.4 782.035V799.315Z" fill="white"/>
<path stroke="black" stroke-width="1px" d="M421.087 875.05V765.7H484.537C487.507 765.7 490.207 766.465 492.637 767.995C495.157 769.435 497.137 771.415 498.577 773.935C500.107 776.365 500.872 779.065 500.872 782.035V827.665C500.872 830.635 500.107 833.38 498.577 835.9C497.137 838.33 495.157 840.31 492.637 841.84C490.207 843.28 487.507 844 484.537 844H432.157V875.05H421.087ZM437.557 832.93H484.537C485.977 832.93 487.192 832.435 488.182 831.445C489.262 830.365 489.802 829.105 489.802 827.665V782.035C489.802 780.595 489.262 779.38 488.182 778.39C487.192 777.31 485.977 776.77 484.537 776.77H437.557C436.117 776.77 434.857 777.31 433.777 778.39C432.697 779.38 432.157 780.595 432.157 782.035V827.665C432.157 829.105 432.697 830.365 433.777 831.445C434.857 832.435 436.117 832.93 437.557 832.93Z" fill="white"/>
<path stroke="black" stroke-width="1px" d="M325.49 844C322.52 844 319.775 843.28 317.255 841.84C314.825 840.4 312.89 838.465 311.45 836.035C310.01 833.515 309.29 830.77 309.29 827.8V763C309.29 760.03 310.01 757.33 311.45 754.9C312.89 752.38 314.825 750.4 317.255 748.96C319.775 747.52 322.52 746.8 325.49 746.8H390.29C393.26 746.8 395.96 747.52 398.39 748.96C400.91 750.4 402.89 752.38 404.33 754.9C405.77 757.33 406.49 760.03 406.49 763V827.8C406.49 830.77 405.77 833.515 404.33 836.035C402.89 838.465 400.91 840.4 398.39 841.84C395.96 843.28 393.26 844 390.29 844H325.49ZM325.49 833.065H390.29C391.73 833.065 392.945 832.57 393.935 831.58C395.015 830.5 395.555 829.24 395.555 827.8V763C395.555 761.56 395.015 760.345 393.935 759.355C392.945 758.275 391.73 757.735 390.29 757.735H325.49C324.05 757.735 322.79 758.275 321.71 759.355C320.72 760.345 320.225 761.56 320.225 763V827.8C320.225 829.24 320.72 830.5 321.71 831.58C322.79 832.57 324.05 833.065 325.49 833.065Z" fill="white"/>
<path stroke="black" stroke-width="1px" d="M846.836 844V763C846.836 760.03 847.556 757.33 848.996 754.9C850.436 752.38 852.371 750.4 854.801 748.96C857.321 747.52 860.066 746.8 863.036 746.8H927.836C930.806 746.8 933.506 747.52 935.936 748.96C938.456 750.4 940.436 752.38 941.876 754.9C943.316 757.33 944.036 760.03 944.036 763V844H933.101V808.495H857.771V844H846.836ZM857.771 797.56H933.101V763C933.101 761.56 932.561 760.345 931.481 759.355C930.491 758.275 929.276 757.735 927.836 757.735H863.036C861.596 757.735 860.336 758.275 859.256 759.355C858.266 760.345 857.771 761.56 857.771 763V797.56Z" fill="url(#paint1_linear_19_308)"/>
<path stroke="black" stroke-width="1px" d="M751.085 844C748.115 844 745.37 843.28 742.85 841.84C740.42 840.4 738.485 838.465 737.045 836.035C735.605 833.515 734.885 830.77 734.885 827.8V824.02H745.82V827.8C745.82 829.24 746.315 830.5 747.305 831.58C748.385 832.57 749.645 833.065 751.085 833.065H815.885C817.325 833.065 818.54 832.57 819.53 831.58C820.61 830.5 821.15 829.24 821.15 827.8V806.065C821.15 804.625 820.61 803.41 819.53 802.42C818.54 801.43 817.325 800.935 815.885 800.935H751.085C748.115 800.935 745.37 800.215 742.85 798.775C740.42 797.245 738.485 795.265 737.045 792.835C735.605 790.405 734.885 787.705 734.885 784.735V763C734.885 760.03 735.605 757.33 737.045 754.9C738.485 752.38 740.42 750.4 742.85 748.96C745.37 747.52 748.115 746.8 751.085 746.8H815.885C818.855 746.8 821.555 747.52 823.985 748.96C826.505 750.4 828.485 752.38 829.925 754.9C831.365 757.33 832.085 760.03 832.085 763V766.78H821.15V763C821.15 761.56 820.61 760.345 819.53 759.355C818.54 758.275 817.325 757.735 815.885 757.735H751.085C749.645 757.735 748.385 758.275 747.305 759.355C746.315 760.345 745.82 761.56 745.82 763V784.735C745.82 786.175 746.315 787.39 747.305 788.38C748.385 789.37 749.645 789.865 751.085 789.865H815.885C818.855 789.865 821.555 790.63 823.985 792.16C826.505 793.6 828.485 795.535 829.925 797.965C831.365 800.395 832.085 803.095 832.085 806.065V827.8C832.085 830.77 831.365 833.515 829.925 836.035C828.485 838.465 826.505 840.4 823.985 841.84C821.555 843.28 818.855 844 815.885 844H751.085Z" fill="url(#paint2_linear_19_308)"/>
<path stroke="black" stroke-width="1px" d="M961.931 927V920.7H966.116V927H961.931Z" fill="#989998"/>
<path stroke="black" stroke-width="1px" d="M931.692 916.56C931.752 919.11 932.532 921.12 934.032 922.59C935.532 924.06 937.482 924.795 939.882 924.795C942.192 924.795 944.487 924.195 946.767 922.995L947.667 925.56C945.147 926.82 942.447 927.45 939.567 927.45C936.207 927.45 933.492 926.355 931.422 924.165C929.352 921.975 928.317 919.02 928.317 915.3C928.317 911.52 929.277 908.55 931.197 906.39C933.147 904.23 935.787 903.15 939.117 903.15C942.357 903.15 944.862 904.185 946.632 906.255C948.432 908.295 949.332 911.235 949.332 915.075C949.332 915.465 949.302 915.96 949.242 916.56H931.692ZM931.692 913.95H946.092C946.062 911.34 945.432 909.33 944.202 907.92C942.972 906.51 941.277 905.805 939.117 905.805C936.867 905.805 935.082 906.525 933.762 907.965C932.472 909.375 931.782 911.37 931.692 913.95Z" fill="#989998"/>
<path stroke="black" stroke-width="1px" d="M909.891 905.895C907.251 905.895 905.196 906.72 903.726 908.37C902.256 909.99 901.521 912.3 901.521 915.3C901.521 918.18 902.286 920.475 903.816 922.185C905.376 923.895 907.401 924.75 909.891 924.75C911.991 924.75 914.001 924.24 915.921 923.22L916.821 925.875C914.571 926.925 912.216 927.45 909.756 927.45C906.276 927.45 903.456 926.355 901.296 924.165C899.136 921.945 898.056 918.99 898.056 915.3C898.056 911.49 899.091 908.52 901.161 906.39C903.231 904.23 906.096 903.15 909.756 903.15C912.216 903.15 914.571 903.675 916.821 904.725L915.921 907.47C913.911 906.42 911.901 905.895 909.891 905.895Z" fill="#989998"/>
<path stroke="black" stroke-width="1px" d="M873.369 903.6H876.564L876.654 908.595H876.744C879.384 904.965 883.104 903.15 887.904 903.15V905.985C884.574 905.985 881.874 906.9 879.804 908.73C877.764 910.56 876.744 912.93 876.744 915.84V927H873.369V903.6Z" fill="#989998"/>
<path stroke="black" stroke-width="1px" d="M844.541 903.6V918.135C844.541 920.535 844.931 922.215 845.711 923.175C846.521 924.135 847.856 924.615 849.716 924.615C851.456 924.615 853.031 923.775 854.441 922.095C855.881 920.415 856.601 918.42 856.601 916.11V903.6H859.886V927H856.736L856.691 922.815H856.601C855.701 924.255 854.546 925.395 853.136 926.235C851.756 927.045 850.256 927.45 848.636 927.45C846.116 927.45 844.256 926.745 843.056 925.335C841.886 923.895 841.301 921.6 841.301 918.45V903.6H844.541Z" fill="#989998"/>
<path stroke="black" stroke-width="1px" d="M824.142 908.37C822.792 906.69 820.932 905.85 818.562 905.85C816.192 905.85 814.317 906.69 812.937 908.37C811.587 910.02 810.912 912.33 810.912 915.3C810.912 918.27 811.587 920.595 812.937 922.275C814.317 923.925 816.192 924.75 818.562 924.75C820.932 924.75 822.792 923.925 824.142 922.275C825.522 920.595 826.212 918.27 826.212 915.3C826.212 912.33 825.522 910.02 824.142 908.37ZM826.572 924.165C824.562 926.355 821.892 927.45 818.562 927.45C815.232 927.45 812.562 926.355 810.552 924.165C808.542 921.975 807.537 919.02 807.537 915.3C807.537 911.58 808.542 908.625 810.552 906.435C812.562 904.245 815.232 903.15 818.562 903.15C821.892 903.15 824.562 904.245 826.572 906.435C828.582 908.625 829.587 911.58 829.587 915.3C829.587 919.02 828.582 921.975 826.572 924.165Z" fill="#989998"/>
<path stroke="black" stroke-width="1px" d="M787.734 903.15C790.584 903.15 793.224 903.75 795.654 904.95L794.934 907.605C792.624 906.435 790.224 905.85 787.734 905.85C785.994 905.85 784.659 906.165 783.729 906.795C782.829 907.425 782.379 908.31 782.379 909.45C782.379 910.53 782.769 911.385 783.549 912.015C784.359 912.645 785.814 913.14 787.914 913.5C790.974 914.01 793.164 914.85 794.484 916.02C795.834 917.19 796.509 918.795 796.509 920.835C796.509 922.875 795.729 924.495 794.169 925.695C792.639 926.865 790.494 927.45 787.734 927.45C784.524 927.45 781.644 926.7 779.094 925.2L779.859 922.545C782.319 924.015 784.944 924.75 787.734 924.75C789.474 924.75 790.809 924.42 791.739 923.76C792.669 923.07 793.134 922.095 793.134 920.835C793.134 919.635 792.714 918.705 791.874 918.045C791.064 917.385 789.624 916.875 787.554 916.515C784.584 916.005 782.424 915.195 781.074 914.085C779.754 912.945 779.094 911.4 779.094 909.45C779.094 907.53 779.844 906 781.344 904.86C782.874 903.72 785.004 903.15 787.734 903.15Z" fill="#989998"/>
<path stroke="black" stroke-width="1px" d="M727.866 903.6H731.016L731.061 907.785H731.151C732.051 906.345 733.191 905.22 734.571 904.41C735.981 903.57 737.496 903.15 739.116 903.15C741.756 903.15 743.706 903.975 744.966 905.625C746.256 907.245 746.901 909.825 746.901 913.365V927H743.661V913.635C743.661 910.725 743.241 908.715 742.401 907.605C741.561 906.465 740.121 905.895 738.081 905.895C736.341 905.895 734.751 906.765 733.311 908.505C731.871 910.215 731.151 912.21 731.151 914.49V927H727.866V903.6Z" fill="#989998"/>
<path stroke="black" stroke-width="1px" d="M698.087 916.56C698.147 919.11 698.927 921.12 700.427 922.59C701.927 924.06 703.877 924.795 706.277 924.795C708.587 924.795 710.882 924.195 713.162 922.995L714.062 925.56C711.542 926.82 708.842 927.45 705.962 927.45C702.602 927.45 699.887 926.355 697.817 924.165C695.747 921.975 694.712 919.02 694.712 915.3C694.712 911.52 695.672 908.55 697.592 906.39C699.542 904.23 702.182 903.15 705.512 903.15C708.752 903.15 711.257 904.185 713.027 906.255C714.827 908.295 715.727 911.235 715.727 915.075C715.727 915.465 715.697 915.96 715.637 916.56H698.087ZM698.087 913.95H712.487C712.457 911.34 711.827 909.33 710.597 907.92C709.367 906.51 707.672 905.805 705.512 905.805C703.262 905.805 701.477 906.525 700.157 907.965C698.867 909.375 698.177 911.37 698.087 913.95Z" fill="#989998"/>
<path stroke="black" stroke-width="1px" d="M674.237 927.45C670.847 927.45 668.327 926.085 666.677 923.355H666.587V936.9H663.302V903.6H666.452L666.497 907.56H666.587C668.237 904.62 670.787 903.15 674.237 903.15C677.177 903.15 679.487 904.2 681.167 906.3C682.847 908.37 683.687 911.37 683.687 915.3C683.687 919.14 682.817 922.125 681.077 924.255C679.367 926.385 677.087 927.45 674.237 927.45ZM680.447 915.3C680.447 912.24 679.832 909.9 678.602 908.28C677.402 906.66 675.707 905.85 673.517 905.85C671.447 905.85 669.767 906.66 668.477 908.28C667.217 909.9 666.587 912.135 666.587 914.985V915.615C666.587 918.525 667.232 920.775 668.522 922.365C669.812 923.955 671.477 924.75 673.517 924.75C675.647 924.75 677.327 923.94 678.557 922.32C679.817 920.67 680.447 918.33 680.447 915.3Z" fill="#989998"/>
<path stroke="black" stroke-width="1px" d="M645.918 908.37C644.568 906.69 642.708 905.85 640.338 905.85C637.968 905.85 636.093 906.69 634.713 908.37C633.363 910.02 632.688 912.33 632.688 915.3C632.688 918.27 633.363 920.595 634.713 922.275C636.093 923.925 637.968 924.75 640.338 924.75C642.708 924.75 644.568 923.925 645.918 922.275C647.298 920.595 647.988 918.27 647.988 915.3C647.988 912.33 647.298 910.02 645.918 908.37ZM648.348 924.165C646.338 926.355 643.668 927.45 640.338 927.45C637.008 927.45 634.338 926.355 632.328 924.165C630.318 921.975 629.313 919.02 629.313 915.3C629.313 911.58 630.318 908.625 632.328 906.435C634.338 904.245 637.008 903.15 640.338 903.15C643.668 903.15 646.338 904.245 648.348 906.435C650.358 908.625 651.363 911.58 651.363 915.3C651.363 919.02 650.358 921.975 648.348 924.165Z" fill="#989998"/>
<path stroke="black" stroke-width="1px" d="M592.492 927V920.7H596.677V927H592.492Z" fill="#989998"/>
<path stroke="black" stroke-width="1px" d="M562.561 908.325C561.331 909.945 560.716 912.27 560.716 915.3C560.716 918.33 561.346 920.67 562.606 922.32C563.866 923.94 565.561 924.75 567.691 924.75C569.731 924.75 571.381 923.955 572.641 922.365C573.931 920.775 574.576 918.525 574.576 915.615V914.985C574.576 912.135 573.931 909.9 572.641 908.28C571.381 906.66 569.731 905.85 567.691 905.85C565.501 905.85 563.791 906.675 562.561 908.325ZM557.476 915.3C557.476 911.37 558.316 908.37 559.996 906.3C561.676 904.2 563.986 903.15 566.926 903.15C570.316 903.15 572.836 904.575 574.486 907.425H574.576V893.25H577.861V927H574.711L574.666 923.04H574.576C572.926 925.98 570.376 927.45 566.926 927.45C564.046 927.45 561.751 926.4 560.041 924.3C558.331 922.17 557.476 919.17 557.476 915.3Z" fill="#989998"/>
<path stroke="black" stroke-width="1px" d="M540.077 927V893.25H543.542V927H540.077Z" fill="#989998"/>
<path stroke="black" stroke-width="1px" d="M511.137 903.6H514.332L514.422 908.595H514.512C517.152 904.965 520.872 903.15 525.672 903.15V905.985C522.342 905.985 519.642 906.9 517.572 908.73C515.532 910.56 514.512 912.93 514.512 915.84V927H511.137V903.6Z" fill="#989998"/>
<path stroke="black" stroke-width="1px" d="M493.753 908.37C492.403 906.69 490.543 905.85 488.173 905.85C485.803 905.85 483.928 906.69 482.548 908.37C481.198 910.02 480.523 912.33 480.523 915.3C480.523 918.27 481.198 920.595 482.548 922.275C483.928 923.925 485.803 924.75 488.173 924.75C490.543 924.75 492.403 923.925 493.753 922.275C495.133 920.595 495.823 918.27 495.823 915.3C495.823 912.33 495.133 910.02 493.753 908.37ZM496.183 924.165C494.173 926.355 491.503 927.45 488.173 927.45C484.843 927.45 482.173 926.355 480.163 924.165C478.153 921.975 477.148 919.02 477.148 915.3C477.148 911.58 478.153 908.625 480.163 906.435C482.173 904.245 484.843 903.15 488.173 903.15C491.503 903.15 494.173 904.245 496.183 906.435C498.193 908.625 499.198 911.58 499.198 915.3C499.198 919.02 498.193 921.975 496.183 924.165Z" fill="#989998"/>
<path stroke="black" stroke-width="1px" d="M438.321 903.6L443.496 924.03H443.586L448.581 903.6H453.216L458.211 924.03H458.301L463.476 903.6H467.031L460.371 927H455.871L450.876 906.885H450.786L445.791 927H441.291L434.631 903.6H438.321Z" fill="#989998"/>
<path stroke="black" stroke-width="1px" d="M383.854 903.6H387.004L387.049 907.785H387.139C388.039 906.345 389.179 905.22 390.559 904.41C391.969 903.57 393.484 903.15 395.104 903.15C397.744 903.15 399.694 903.975 400.954 905.625C402.244 907.245 402.889 909.825 402.889 913.365V927H399.649V913.635C399.649 910.725 399.229 908.715 398.389 907.605C397.549 906.465 396.109 905.895 394.069 905.895C392.329 905.895 390.739 906.765 389.299 908.505C387.859 910.215 387.139 912.21 387.139 914.49V927H383.854V903.6Z" fill="#989998"/>
<path stroke="black" stroke-width="1px" d="M354.074 916.56C354.134 919.11 354.914 921.12 356.414 922.59C357.914 924.06 359.864 924.795 362.264 924.795C364.574 924.795 366.869 924.195 369.149 922.995L370.049 925.56C367.529 926.82 364.829 927.45 361.949 927.45C358.589 927.45 355.874 926.355 353.804 924.165C351.734 921.975 350.699 919.02 350.699 915.3C350.699 911.52 351.659 908.55 353.579 906.39C355.529 904.23 358.169 903.15 361.499 903.15C364.739 903.15 367.244 904.185 369.014 906.255C370.814 908.295 371.714 911.235 371.714 915.075C371.714 915.465 371.684 915.96 371.624 916.56H354.074ZM354.074 913.95H368.474C368.444 911.34 367.814 909.33 366.584 907.92C365.354 906.51 363.659 905.805 361.499 905.805C359.249 905.805 357.464 906.525 356.144 907.965C354.854 909.375 354.164 911.37 354.074 913.95Z" fill="#989998"/>
<path stroke="black" stroke-width="1px" d="M330.224 927.45C326.834 927.45 324.314 926.085 322.664 923.355H322.574V936.9H319.289V903.6H322.439L322.484 907.56H322.574C324.224 904.62 326.774 903.15 330.224 903.15C333.164 903.15 335.474 904.2 337.154 906.3C338.834 908.37 339.674 911.37 339.674 915.3C339.674 919.14 338.804 922.125 337.064 924.255C335.354 926.385 333.074 927.45 330.224 927.45ZM336.434 915.3C336.434 912.24 335.819 909.9 334.589 908.28C333.389 906.66 331.694 905.85 329.504 905.85C327.434 905.85 325.754 906.66 324.464 908.28C323.204 909.9 322.574 912.135 322.574 914.985V915.615C322.574 918.525 323.219 920.775 324.509 922.365C325.799 923.955 327.464 924.75 329.504 924.75C331.634 924.75 333.314 923.94 334.544 922.32C335.804 920.67 336.434 918.33 336.434 915.3Z" fill="#989998"/>
<path stroke="black" stroke-width="1px" d="M301.905 908.37C300.555 906.69 298.695 905.85 296.325 905.85C293.955 905.85 292.08 906.69 290.7 908.37C289.35 910.02 288.675 912.33 288.675 915.3C288.675 918.27 289.35 920.595 290.7 922.275C292.08 923.925 293.955 924.75 296.325 924.75C298.695 924.75 300.555 923.925 301.905 922.275C303.285 920.595 303.975 918.27 303.975 915.3C303.975 912.33 303.285 910.02 301.905 908.37ZM304.335 924.165C302.325 926.355 299.655 927.45 296.325 927.45C292.995 927.45 290.325 926.355 288.315 924.165C286.305 921.975 285.3 919.02 285.3 915.3C285.3 911.58 286.305 908.625 288.315 906.435C290.325 904.245 292.995 903.15 296.325 903.15C299.655 903.15 302.325 904.245 304.335 906.435C306.345 908.625 307.35 911.58 307.35 915.3C307.35 919.02 306.345 921.975 304.335 924.165Z" fill="#989998"/>
<defs>
<linearGradient id="paint0_linear_19_308" x1="699.97" y1="450.5" x2="699.97" y2="696.5" gradientUnits="userSpaceOnUse">
<stop stop-color="#FD8709"/>
<stop offset="1" stop-color="#F55C07"/>
</linearGradient>
<linearGradient id="paint1_linear_19_308" x1="840" y1="708" x2="840" y2="877" gradientUnits="userSpaceOnUse">
<stop stop-color="#FD870A"/>
<stop offset="1" stop-color="#F55C07"/>
</linearGradient>
<linearGradient id="paint2_linear_19_308" x1="840" y1="708" x2="840" y2="877" gradientUnits="userSpaceOnUse">
<stop stop-color="#FD870A"/>
<stop offset="1" stop-color="#F55C07"/>
</linearGradient>
</defs>
</svg>
